<svg id="svg" version="1.1" xmlns="http://www.w3.org/2000/svg" xmlns:xlink="http://www.w3.org/1999/xlink" width="400" height="400" viewBox="0, 0, 400,400"><g id="svgg"><path id="path0" d="M121.200 199.991 L 121.200 304.000 180.197 304.000 L 239.195 304.000 239.297 275.512 L 239.400 247.024 242.200 246.548 C 258.880 243.708,276.664 232.806,287.791 218.600 C 323.264 173.311,297.383 107.543,239.988 97.122 L 235.000 96.217 178.100 96.099 L 121.200 95.981 121.200 199.991 M235.111 126.123 C 275.807 133.627,288.103 185.146,255.029 209.579 C 245.698 216.472,236.848 218.794,219.900 218.798 L 209.600 218.800 209.600 246.592 L 209.600 274.385 208.700 274.603 C 208.205 274.722,195.020 274.771,179.400 274.710 L 151.000 274.600 150.897 200.400 C 150.841 159.590,150.883 125.967,150.992 125.682 C 151.329 124.795,230.149 125.208,235.111 126.123 " stroke="none" fill="#fbfbfb" fill-rule="evenodd"></path><path id="path1" d="M148.331 95.900 C 163.363 95.958,187.843 95.958,202.731 95.900 C 217.619 95.842,205.320 95.794,175.400 95.794 C 145.480 95.794,133.299 95.842,148.331 95.900 M260.200 139.600 C 261.059 140.480,261.852 141.200,261.962 141.200 C 262.072 141.200,261.459 140.480,260.600 139.600 C 259.741 138.720,258.948 138.000,258.838 138.000 C 258.728 138.000,259.341 138.720,260.200 139.600 M304.137 172.200 C 304.139 173.960,304.209 174.630,304.293 173.689 C 304.378 172.749,304.377 171.309,304.291 170.489 C 304.205 169.670,304.136 170.440,304.137 172.200 M262.175 202.500 L 261.000 203.800 262.300 202.625 C 263.015 201.979,263.600 201.394,263.600 201.325 C 263.600 201.016,263.270 201.288,262.175 202.500 M281.600 225.800 C 280.628 226.790,279.923 227.600,280.033 227.600 C 280.143 227.600,281.028 226.790,282.000 225.800 C 282.972 224.810,283.677 224.000,283.567 224.000 C 283.457 224.000,282.572 224.810,281.600 225.800 M150.731 304.300 C 167.084 304.358,193.724 304.358,209.931 304.300 C 226.139 304.242,212.760 304.195,180.200 304.195 C 147.640 304.195,134.379 304.242,150.731 304.300 " stroke="none" fill="#5dbdac" fill-rule="evenodd"></path><path id="path2" d="M38.835 0.825 C 36.544 1.231,34.564 1.716,34.435 1.902 C 34.306 2.087,33.390 2.473,32.400 2.758 C 31.410 3.044,29.970 3.662,29.200 4.133 C 28.430 4.604,27.800 4.930,27.800 4.857 C 27.800 4.666,25.437 5.738,25.200 6.036 C 25.090 6.175,24.420 6.586,23.711 6.949 C 21.453 8.105,18.733 10.108,16.986 11.900 C 16.503 12.395,16.012 12.800,15.894 12.800 C 15.615 12.800,12.800 15.615,12.800 15.894 C 12.800 16.012,12.395 16.503,11.900 16.986 C 10.108 18.733,8.105 21.453,6.949 23.711 C 6.586 24.420,6.175 25.090,6.036 25.200 C 5.766 25.414,4.963 27.138,4.825 27.800 C 4.779 28.020,4.412 28.740,4.009 29.400 C 3.607 30.060,3.044 31.410,2.758 32.400 C 2.473 33.390,2.090 34.304,1.909 34.430 C -1.126 36.546,-1.126 363.454,1.909 365.570 C 2.090 365.696,2.473 366.610,2.758 367.600 C 3.044 368.590,3.662 370.030,4.133 370.800 C 4.604 371.570,4.930 372.200,4.857 372.200 C 4.666 372.200,5.738 374.563,6.036 374.800 C 6.175 374.910,6.586 375.580,6.949 376.289 C 8.105 378.547,10.108 381.267,11.900 383.014 C 12.395 383.497,12.800 383.988,12.800 384.106 C 12.800 384.385,15.615 387.200,15.894 387.200 C 16.012 387.200,16.503 387.605,16.986 388.100 C 18.733 389.892,21.453 391.895,23.711 393.051 C 24.420 393.414,25.090 393.825,25.200 393.964 C 25.435 394.261,27.309 395.110,27.600 395.051 C 27.710 395.029,28.430 395.396,29.200 395.867 C 29.970 396.338,31.410 396.956,32.400 397.242 C 33.390 397.527,34.304 397.910,34.430 398.091 C 36.546 401.126,363.454 401.126,365.570 398.091 C 365.696 397.910,366.610 397.527,367.600 397.242 C 368.590 396.956,369.940 396.393,370.600 395.991 C 371.260 395.588,371.980 395.221,372.200 395.175 C 372.862 395.037,374.586 394.234,374.800 393.964 C 374.910 393.825,375.580 393.414,376.289 393.051 C 378.547 391.895,381.267 389.892,383.014 388.100 C 383.497 387.605,383.988 387.200,384.106 387.200 C 384.385 387.200,387.200 384.385,387.200 384.106 C 387.200 383.988,387.605 383.497,388.100 383.014 C 389.892 381.267,391.895 378.547,393.051 376.289 C 393.414 375.580,393.825 374.910,393.964 374.800 C 394.234 374.586,395.037 372.862,395.175 372.200 C 395.221 371.980,395.588 371.260,395.991 370.600 C 396.393 369.940,396.956 368.590,397.242 367.600 C 397.527 366.610,397.910 365.696,398.091 365.570 C 401.126 363.454,401.126 36.546,398.091 34.430 C 397.910 34.304,397.527 33.390,397.242 32.400 C 396.956 31.410,396.393 30.060,395.991 29.400 C 395.588 28.740,395.221 28.020,395.175 27.800 C 395.037 27.138,394.234 25.414,393.964 25.200 C 393.825 25.090,393.414 24.420,393.051 23.711 C 391.895 21.453,389.892 18.733,388.100 16.986 C 387.605 16.503,387.200 16.012,387.200 15.894 C 387.200 15.615,384.385 12.800,384.106 12.800 C 383.988 12.800,383.497 12.395,383.014 11.900 C 381.267 10.108,378.547 8.105,376.289 6.949 C 375.580 6.586,374.910 6.175,374.800 6.036 C 374.587 5.767,372.336 4.721,372.000 4.734 C 371.890 4.738,371.260 4.412,370.600 4.009 C 369.940 3.607,368.590 3.044,367.600 2.758 C 366.610 2.473,365.696 2.090,365.570 1.909 C 364.098 -0.201,50.480 -1.242,38.835 0.825 M234.531 96.036 C 259.534 98.276,279.419 110.919,294.241 134.000 C 313.013 163.231,305.274 206.562,277.035 230.336 C 273.840 233.026,271.781 234.501,266.000 238.236 C 260.657 241.688,248.801 246.041,241.100 247.376 L 239.600 247.636 239.600 276.019 L 239.600 304.403 180.100 304.301 L 120.600 304.200 120.498 200.400 C 120.441 143.310,120.481 96.375,120.585 96.100 C 120.839 95.430,227.103 95.371,234.531 96.036 M151.200 200.000 L 151.200 274.000 180.000 274.000 L 208.800 274.000 208.800 246.239 L 208.800 218.478 220.900 218.301 C 233.753 218.114,234.622 218.007,241.800 215.734 C 268.026 207.431,281.131 176.713,268.990 152.000 C 266.096 146.107,259.618 138.291,255.165 135.317 C 247.882 130.452,242.999 128.225,237.400 127.213 C 235.860 126.935,234.078 126.548,233.440 126.354 C 232.801 126.159,214.084 126.000,191.740 126.000 L 151.200 126.000 151.200 200.000 " stroke="none" fill="#04a484" fill-rule="evenodd"></path><path id="path3" d="M120.667 95.867 C 120.296 96.237,120.329 303.909,120.700 304.138 C 120.865 304.240,121.000 257.361,121.000 199.962 C 121.000 142.563,120.985 95.600,120.967 95.600 C 120.948 95.600,120.813 95.720,120.667 95.867 M282.400 119.000 C 283.817 120.430,285.067 121.600,285.177 121.600 C 285.287 121.600,284.217 120.430,282.800 119.000 C 281.383 117.570,280.133 116.400,280.023 116.400 C 279.913 116.400,280.983 117.570,282.400 119.000 M170.470 125.900 C 181.178 125.959,198.818 125.959,209.670 125.900 C 220.521 125.841,211.760 125.792,190.200 125.792 C 168.640 125.792,159.761 125.841,170.470 125.900 M273.734 172.000 C 273.734 173.650,273.805 174.325,273.891 173.500 C 273.978 172.675,273.978 171.325,273.891 170.500 C 273.805 169.675,273.734 170.350,273.734 172.000 M259.775 204.900 L 258.600 206.200 259.900 205.025 C 260.615 204.379,261.200 203.794,261.200 203.725 C 261.200 203.416,260.870 203.688,259.775 204.900 M208.897 246.097 L 208.800 273.995 179.900 274.100 L 151.000 274.205 179.913 274.303 C 202.746 274.380,208.865 274.295,209.016 273.900 C 209.121 273.625,209.159 260.980,209.101 245.800 L 208.994 218.200 208.897 246.097 " stroke="none" fill="#35b49c" fill-rule="evenodd"></path><path id="path4" d="M120.997 200.000 C 120.997 257.310,121.043 280.755,121.100 252.100 C 121.157 223.445,121.157 176.555,121.100 147.900 C 121.043 119.245,120.997 142.690,120.997 200.000 M236.500 96.676 C 236.885 96.776,237.515 96.776,237.900 96.676 C 238.285 96.575,237.970 96.493,237.200 96.493 C 236.430 96.493,236.115 96.575,236.500 96.676 M278.800 115.710 C 278.800 115.771,280.195 117.166,281.900 118.810 L 285.000 121.800 282.010 118.700 C 279.233 115.821,278.800 115.417,278.800 115.710 M150.985 125.700 C 150.880 125.975,150.841 159.590,150.897 200.400 L 151.000 274.600 179.800 274.604 L 208.600 274.608 179.900 274.501 L 151.200 274.395 151.200 199.999 L 151.200 125.604 189.700 125.500 L 228.200 125.396 189.687 125.298 C 159.173 125.220,151.135 125.304,150.985 125.700 M268.600 150.800 C 268.941 151.460,269.311 152.000,269.421 152.000 C 269.531 152.000,269.341 151.460,269.000 150.800 C 268.659 150.140,268.289 149.600,268.179 149.600 C 268.069 149.600,268.259 150.140,268.600 150.800 M300.856 150.800 C 300.856 151.130,301.011 151.760,301.200 152.200 C 301.417 152.704,301.544 152.778,301.544 152.400 C 301.544 152.070,301.389 151.440,301.200 151.000 C 300.983 150.496,300.856 150.422,300.856 150.800 M303.293 162.000 C 303.293 162.770,303.375 163.085,303.476 162.700 C 303.576 162.315,303.576 161.685,303.476 161.300 C 303.375 160.915,303.293 161.230,303.293 162.000 M303.693 165.200 C 303.693 165.970,303.775 166.285,303.876 165.900 C 303.976 165.515,303.976 164.885,303.876 164.500 C 303.775 164.115,303.693 164.430,303.693 165.200 M303.293 182.000 C 303.293 182.770,303.375 183.085,303.476 182.700 C 303.576 182.315,303.576 181.685,303.476 181.300 C 303.375 180.915,303.293 181.230,303.293 182.000 M272.650 182.450 C 272.317 184.117,272.640 184.440,273.000 182.800 C 273.152 182.109,273.193 181.459,273.091 181.358 C 272.989 181.256,272.791 181.747,272.650 182.450 M270.844 188.444 C 270.598 189.151,270.466 189.800,270.552 189.885 C 270.638 189.971,270.909 189.462,271.156 188.756 C 271.402 188.049,271.534 187.400,271.448 187.315 C 271.362 187.229,271.091 187.738,270.844 188.444 M301.029 192.629 C 300.881 193.215,300.838 193.772,300.932 193.866 C 301.027 193.960,301.224 193.558,301.371 192.971 C 301.519 192.385,301.562 191.828,301.468 191.734 C 301.373 191.640,301.176 192.042,301.029 192.629 M260.388 204.700 L 257.800 207.400 260.500 204.812 C 261.985 203.388,263.200 202.173,263.200 202.112 C 263.200 201.817,262.793 202.192,260.388 204.700 M296.865 203.817 C 296.195 205.288,296.323 205.602,297.047 204.265 C 297.386 203.640,297.588 203.054,297.496 202.963 C 297.405 202.871,297.121 203.256,296.865 203.817 M295.000 207.600 C 294.659 208.260,294.469 208.800,294.579 208.800 C 294.689 208.800,295.059 208.260,295.400 207.600 C 295.741 206.940,295.931 206.400,295.821 206.400 C 295.711 206.400,295.341 206.940,295.000 207.600 M255.600 208.849 C 254.206 210.071,254.205 210.072,255.488 209.219 C 256.196 208.748,256.882 208.191,257.012 207.981 C 257.397 207.357,257.077 207.554,255.600 208.849 M239.400 216.800 C 238.896 217.017,238.822 217.144,239.200 217.144 C 239.530 217.144,240.160 216.989,240.600 216.800 C 241.104 216.583,241.178 216.456,240.800 216.456 C 240.470 216.456,239.840 216.611,239.400 216.800 M209.384 218.900 C 209.279 219.175,209.241 231.820,209.299 247.000 L 209.406 274.600 209.503 246.706 L 209.600 218.813 220.500 218.700 L 231.400 218.587 220.487 218.493 C 212.056 218.421,209.531 218.514,209.384 218.900 M283.785 223.300 L 281.800 225.400 283.900 223.415 C 285.851 221.571,286.183 221.200,285.885 221.200 C 285.822 221.200,284.877 222.145,283.785 223.300 M278.981 228.100 L 277.400 229.800 279.100 228.219 C 280.035 227.349,280.800 226.584,280.800 226.519 C 280.800 226.216,280.452 226.519,278.981 228.100 M254.600 243.014 C 253.600 243.496,253.566 243.551,254.400 243.348 C 255.533 243.071,256.807 242.421,256.200 242.430 C 255.980 242.433,255.260 242.696,254.600 243.014 M247.800 245.200 C 247.296 245.417,247.222 245.544,247.600 245.544 C 247.930 245.544,248.560 245.389,249.000 245.200 C 249.504 244.983,249.578 244.856,249.200 244.856 C 248.870 244.856,248.240 245.011,247.800 245.200 M239.384 247.300 C 239.279 247.575,239.241 260.490,239.299 276.000 L 239.405 304.200 239.503 275.727 L 239.600 247.253 240.700 247.087 L 241.800 246.920 240.687 246.860 C 240.076 246.827,239.489 247.025,239.384 247.300 " stroke="none" fill="#96d7c8" fill-rule="evenodd"></path></g></svg>